<svg width="800" height="800" xmlns="http://www.w3.org/2000/svg" version="1.1"><g transform="translate(100,100)"><g class="arc"><path d="M-51.36087765828174,79.91908561896224A95,95 0 0,1 -1.745121688784978e-14,-95L0,0Z" style="fill: rgb(191, 105, 105);"></path></g><g class="arc"><path d="M5.8170722959499274e-15,-95A95,95 0 1,1 -51.36087765828174,79.91908561896224L0,0Z" style="fill: rgb(105, 191, 191);"></path></g><text y="105" style="text-anchor: middle; font-size: 11px; font-family: Arial, Helvetica;">Cerrillos</text></g><g transform="translate(300,100)"><g class="arc"><path d="M-51.36087765828174,79.91908561896224A95,95 0 0,1 -1.745121688784978e-14,-95L0,0Z" style="fill: rgb(191, 105, 105);"></path></g><g class="arc"><path d="M5.8170722959499274e-15,-95A95,95 0 1,1 -51.36087765828174,79.91908561896224L0,0Z" style="fill: rgb(105, 191, 191);"></path></g><text y="105" style="text-anchor: middle; font-size: 11px; font-family: Arial, Helvetica;">Pudahuel</text></g><g transform="translate(500,100)"><g class="arc"><path d="M-86.14569681183863,27.990433639874666A90.57894597833126,90.57894597833126 0 0,1 -1.6639082439375658e-14,-90.57894597833126L0,0Z" style="fill: rgb(191, 105, 105);"></path></g><g class="arc"><path d="M5.54636081312522e-15,-90.57894597833126A90.57894597833126,90.57894597833126 0 1,1 -86.14569681183863,27.990433639874666L0,0Z" style="fill: rgb(105, 191, 191);"></path></g><text y="100.57894597833126" style="text-anchor: middle; font-size: 11px; font-family: Arial, Helvetica;">Estación Central</text></g><g transform="translate(700,100)"><g class="arc"><path d="M-53.24096861425976,73.27990662904027A90.57894597833126,90.57894597833126 0 0,1 -1.6639082439375658e-14,-90.57894597833126L0,0Z" style="fill: rgb(191, 105, 105);"></path></g><g class="arc"><path d="M5.54636081312522e-15,-90.57894597833126A90.57894597833126,90.57894597833126 0 1,1 -53.24096861425976,73.27990662904027L0,0Z" style="fill: rgb(105, 191, 191);"></path></g><text y="100.57894597833126" style="text-anchor: middle; font-size: 11px; font-family: Arial, Helvetica;">La Florida</text></g><g transform="translate(100,300)"><g class="arc"><path d="M5.54636081312522e-15,-90.57894597833126A90.57894597833126,90.57894597833126 0 1,1 -3.4678771735443414e-14,90.57894597833126L0,0Z" style="fill: rgb(191, 105, 105);"></path></g><g class="arc"><path d="M-3.4678771735443414e-14,90.57894597833126A90.57894597833126,90.57894597833126 0 1,1 6.381118265776161e-14,-90.57894597833126L0,0Z" style="fill: rgb(105, 191, 191);"></path></g><text y="100.57894597833126" style="text-anchor: middle; font-size: 11px; font-family: Arial, Helvetica;">La Pintana</text></g><g transform="translate(300,300)"><g class="arc"><path d="M-27.990433639874595,-86.14569681183866A90.57894597833126,90.57894597833126 0 0,1 6.381118265776161e-14,-90.57894597833126L0,0Z" style="fill: rgb(191, 105, 105);"></path></g><g class="arc"><path d="M5.54636081312522e-15,-90.57894597833126A90.57894597833126,90.57894597833126 0 1,1 -27.990433639874595,-86.14569681183866L0,0Z" style="fill: rgb(105, 191, 191);"></path></g><text y="100.57894597833126" style="text-anchor: middle; font-size: 11px; font-family: Arial, Helvetica;">Las Condes</text></g><g transform="translate(500,300)"><g class="arc"><path d="M-53.24096861425976,73.27990662904027A90.57894597833126,90.57894597833126 0 0,1 -1.6639082439375658e-14,-90.57894597833126L0,0Z" style="fill: rgb(191, 105, 105);"></path></g><g class="arc"><path d="M5.54636081312522e-15,-90.57894597833126A90.57894597833126,90.57894597833126 0 1,1 -53.24096861425976,73.27990662904027L0,0Z" style="fill: rgb(105, 191, 191);"></path></g><text y="100.57894597833126" style="text-anchor: middle; font-size: 11px; font-family: Arial, Helvetica;">Cerro Navia</text></g><g transform="translate(700,300)"><g class="arc"><path d="M-53.240968614259685,-73.27990662904033A90.57894597833126,90.57894597833126 0 0,1 6.381118265776161e-14,-90.57894597833126L0,0Z" style="fill: rgb(191, 105, 105);"></path></g><g class="arc"><path d="M5.54636081312522e-15,-90.57894597833126A90.57894597833126,90.57894597833126 0 1,1 -53.240968614259685,-73.27990662904033L0,0Z" style="fill: rgb(105, 191, 191);"></path></g><text y="100.57894597833126" style="text-anchor: middle; font-size: 11px; font-family: Arial, Helvetica;">Providencia</text></g><g transform="translate(100,500)"><g class="arc"><path d="M-86.14569681183865,-27.990433639874645A90.57894597833126,90.57894597833126 0 0,1 -1.6639082439375658e-14,-90.57894597833126L0,0Z" style="fill: rgb(191, 105, 105);"></path></g><g class="arc"><path d="M5.54636081312522e-15,-90.57894597833126A90.57894597833126,90.57894597833126 0 1,1 -86.14569681183865,-27.990433639874645L0,0Z" style="fill: rgb(105, 191, 191);"></path></g><text y="100.57894597833126" style="text-anchor: middle; font-size: 11px; font-family: Arial, Helvetica;">Ñuñoa</text></g><g transform="translate(300,500)"><g class="arc"><path d="M5.54636081312522e-15,-90.57894597833126A90.57894597833126,90.57894597833126 0 1,1 -53.24096861425976,73.27990662904027L0,0Z" style="fill: rgb(191, 105, 105);"></path></g><g class="arc"><path d="M-53.24096861425976,73.27990662904027A90.57894597833126,90.57894597833126 0 0,1 -1.6639082439375658e-14,-90.57894597833126L0,0Z" style="fill: rgb(105, 191, 191);"></path></g><text y="100.57894597833126" style="text-anchor: middle; font-size: 11px; font-family: Arial, Helvetica;">San Miguel</text></g><g transform="translate(500,500)"><g class="arc"><path d="M5.54636081312522e-15,-90.57894597833126A90.57894597833126,90.57894597833126 0 1,1 -53.24096861425976,73.27990662904027L0,0Z" style="fill: rgb(191, 105, 105);"></path></g><g class="arc"><path d="M-53.24096861425976,73.27990662904027A90.57894597833126,90.57894597833126 0 0,1 -1.6639082439375658e-14,-90.57894597833126L0,0Z" style="fill: rgb(105, 191, 191);"></path></g><text y="100.57894597833126" style="text-anchor: middle; font-size: 11px; font-family: Arial, Helvetica;">Santiago</text></g><g transform="translate(700,500)"><g class="arc"><path d="M-27.990433639874595,-86.14569681183866A90.57894597833126,90.57894597833126 0 0,1 6.381118265776161e-14,-90.57894597833126L0,0Z" style="fill: rgb(191, 105, 105);"></path></g><g class="arc"><path d="M5.54636081312522e-15,-90.57894597833126A90.57894597833126,90.57894597833126 0 1,1 -27.990433639874595,-86.14569681183866L0,0Z" style="fill: rgb(105, 191, 191);"></path></g><text y="100.57894597833126" style="text-anchor: middle; font-size: 11px; font-family: Arial, Helvetica;">Vitacura</text></g><g transform="translate(100,700)"><g class="arc"><path d="M5.54636081312522e-15,-90.57894597833126A90.57894597833126,90.57894597833126 0 1,1 -3.4678771735443414e-14,90.57894597833126L0,0Z" style="fill: rgb(191, 105, 105);"></path></g><g class="arc"><path d="M-3.4678771735443414e-14,90.57894597833126A90.57894597833126,90.57894597833126 0 1,1 6.381118265776161e-14,-90.57894597833126L0,0Z" style="fill: rgb(105, 191, 191);"></path></g><text y="100.57894597833126" style="text-anchor: middle; font-size: 11px; font-family: Arial, Helvetica;">Maipú</text></g></svg>